<svg version="1.2" xmlns="http://www.w3.org/2000/svg" viewBox="0 0 361 361" width="37" height="37">
	<title>New Project</title>
	<style>
		.s0 { fill: none;stroke: #ffffff;stroke-miterlimit:100;stroke-width: 18 } 
		.s1 { fill: #fbaf18 } 
		.s2 { fill: #0071bd } 
	</style>
	<path id="Shape 2" fill-rule="evenodd" class="s0" d="m152.98 154.54h29.46c5.52 0 10 4.47 10 10v32.8c0 5.53-4.48 10-10 10h-29.46c-5.53 0-10-4.47-10-10v-32.8c0-5.53 4.47-10 10-10z"/>
	<path id="T" class="s1" aria-label="T"  d="m75.9 287h-34.3q-1.3 0-1.3-1.5v-173.4h-39.5q-1.5 0-1.5-1.4l0.3-34q0-1.2 1.2-1.2h115.5q1.6 0 1.6 1.2v34q0 1.4-1.2 1.4h-39.9l0.3 173.4q0 1.5-1.2 1.5z"/>
	<path id="P" class="s2" aria-label="P"  d="m273.6 287h-34.1q-1.5 0-1.5-1.5l0.6-208.8q0-1.2 1.2-1.2h58.5q27.9 0 44.1 17 16.3 17 16.3 46.2 0 21.4-8.5 37.3-8.6 15.7-22.2 24.3-13.7 8.6-29.7 8.6h-23.2v76.6q0 1.5-1.5 1.5zm24.7-175.5l-23.2 0.3v60.3h23.2q9.6 0 16.8-9.2 7.1-9.3 7.1-24.2 0-11.9-6.4-19.4-6.4-7.8-17.5-7.8z"/>
</svg>