<svg version="1.2" xmlns="http://www.w3.org/2000/svg" viewBox="0 0 963 159" width="212" height="35">
	<title>ThingsPad-logo</title>
	<style>
		.s0 { fill: none;stroke: #ffffff;stroke-miterlimit:100;stroke-width: 18 } 
		.s1 { fill: #fbaf18 } 
		.s2 { fill: #0071bd } 
	</style>
	<path id="Shape 2" fill-rule="evenodd" class="s0" d="m592.69 44.12h42.48c5.53 0 10 4.48 10 10v46.7c0 5.53-4.47 10-10 10h-42.48c-5.52 0-10-4.47-10-10v-46.7c0-5.52 4.48-10 10-10z"/>
	<path id="Things" class="s1" aria-label="Things"  d="m57.4 157h-25.1q-1 0-1-1.1v-127.3h-29q-1.1 0-1.1-1l0.2-25q0-0.9 0.9-0.9h84.8q1.2 0 1.2 0.9v25q0 1-0.9 1h-29.3l0.2 127.3q0 1.1-0.9 1.1zm67.6 0h-25.3q-0.9 0-0.9-1.1l0.2-153.3q0-0.9 1.1-0.9h24.9q1.1 0 1.1 0.9l-0.3 60.7h33.5v-60.7q0-0.9 0.9-0.9h24.8q1.1 0 1.1 0.9l0.4 153.3q0 1.1-1 1.1h-25.1q-1.1 0-1.1-1.1v-65.6h-33.5v65.6q0 1.1-0.8 1.1zm106.2 0h-25.3q-1.1 0-1.1-1.1l0.2-153.3q0-0.9 0.9-0.9h25.1q0.8 0 0.8 0.9l0.3 153.3q0 1.1-0.9 1.1zm44.9 0h-22.3q-1.8 0-1.8-1.5l-0.2-152q0-1.8 1.8-1.8h20.1l37.7 88-1.1-86.2q0-1.8 2-1.8h22.1q1.3 0 1.3 1.8l0.2 152.2q0 1.3-1 1.3h-19.7l-38.6-82.2 1.6 80.5q0 1.7-2.1 1.7zm120.6 2.2q-12.1 0-21.8-6-9.8-6-15.8-16.1-5.9-10.2-5.9-22.7v-70.7q0-12.2 6-22.2 5.9-10.2 15.8-16.2 9.9-6.1 21.7-6.1 12.3 0 22.2 5.9 9.9 6 15.7 16 5.9 10 5.9 22.6v10.2q0 0.9-1.1 0.9h-25.1q-0.8 0-0.8-0.9v-8.5q0-8.5-4.8-14-4.8-5.6-12-5.6-6.4 0-11.5 5.3-5 5.4-5 12.6v70.7q0 7.3 4.9 12.6 4.9 5.3 11.6 5.3 7.2 0 12-5.2 4.8-5.2 4.8-12.7v-11h-15.6q-1.2 0-1.2-1.1v-25q0-1 1.2-1h41.7q0.9 0 0.9 1v37.1q0 12.5-5.9 22.7-6 10.1-15.8 16.1-9.8 6-22.1 6zm97 0q-11.8 0-21.9-6.1-9.9-6.1-15.9-16.3-5.8-10.2-5.8-22.4v-10.2q0-1.2 1-1.2h25.1q0.9 0 0.9 1.2v10.2q0 7.3 4.9 12.6 4.9 5.3 11.7 5.3 7 0 11.9-5.4 4.9-5.4 4.9-12.5 0-8.2-10.7-14.3-1.7-1.1-4.5-2.6-2.8-1.6-6.6-3.7-3.8-2.1-7.4-4-3.6-2.1-7-4-12.2-7.1-18.1-17.9-5.9-10.9-5.9-24.4 0-12.5 6.1-22.5 6.1-9.9 15.9-15.7 9.9-5.9 21.4-5.9 11.9 0 21.8 5.9 10 6 15.8 15.9 6 9.9 6 22.3v18.3q0 0.8-0.8 0.8h-25.1q-0.9 0-0.9-0.8l-0.2-18.3q0-7.9-4.9-12.8-4.9-4.9-11.7-4.9-6.8 0-11.7 5.2-4.9 5.3-4.9 12.5 0 7.3 3 12.2 3.2 4.9 11.5 9.3 0.8 0.5 4 2.2 3.2 1.8 7 3.9 3.9 2.1 7.1 3.9 3.1 1.6 3.8 1.9 11.1 6.2 17.5 15.3 6.5 9 6.5 22.2 0 12.7-5.8 22.9-6 10.1-15.9 16-10 5.9-22.1 5.9z"/>
	<path id="PAD" class="s2" aria-label="PAD"  d="m713 157h-25.1q-1.1 0-1.1-1.1l0.5-153.3q0-0.9 0.8-0.9h43q20.4 0 32.3 12.6 12 12.4 12 33.8 0 15.7-6.2 27.4-6.3 11.5-16.3 17.9-10.1 6.3-21.8 6.3h-17v56.2q0 1.1-1.1 1.1zm18.1-128.8l-17 0.2v44.3h17q7 0 12.3-6.8 5.2-6.9 5.2-17.8 0-8.7-4.7-14.2-4.7-5.7-12.8-5.7zm39.2 127.7l27.7-153.3q0.2-0.9 1.1-0.9h32.3q0.9 0 1.1 0.9l26.6 153.3q0.1 1.1-0.9 1.1h-24.7q-1.1 0-1.2-1.1l-2.4-16.3h-30.4l-2.4 16.3q-0.1 1.1-1.1 1.1h-24.8q-0.9 0-0.9-1.1zm55.1-40.2l-9.1-62.6-1.3-8.3-1 8.3-10 62.6zm88.4 41.1l-39.9 0.2q-1.1 0-1.1-1.1l0.4-153.3q0-0.9 0.9-0.9l41.7-0.2q12.4-0.3 22.4 5.7 10.2 6 16.2 16.2 6.1 10.1 6.1 22.5v64q0 12.9-6.2 23.6-6.4 10.5-16.8 16.9-10.5 6.2-23.7 6.4zm2-128.6l-15.6 0.2-0.2 101.1h13.8q8.3 0 14-5.7 5.7-5.8 5.7-13.9v-64.3q0-7-5.3-12.3-5.2-5.3-12.4-5.1z"/>
</svg>